<svg width="16" height="16" viewBox="0 0 16 16" fill="none" xmlns="http://www.w3.org/2000/svg">
<path d="M9 4.17857C9 3.99777 8.85938 3.85715 8.67857 3.85715H8.03572C7.85491 3.85715 7.71429 3.99777 7.71429 4.17857V7.71428H5.46429C5.28348 7.71428 5.14286 7.85492 5.14286 8.03572V8.67857C5.14286 8.85938 5.28348 9 5.46429 9H8.67857C8.85938 9 9 8.85938 9 8.67857V4.17857ZM13.1786 7.71428C13.1786 10.7277 10.7277 13.1786 7.71429 13.1786C4.70089 13.1786 2.25 10.7277 2.25 7.71428C2.25 4.70089 4.70089 2.25 7.71429 2.25C10.7277 2.25 13.1786 4.70089 13.1786 7.71428ZM15.4286 7.71428C15.4286 3.45535 11.9732 0 7.71429 0C3.45536 0 0 3.45535 0 7.71428C0 11.9732 3.45536 15.4286 7.71429 15.4286C11.9732 15.4286 15.4286 11.9732 15.4286 7.71428Z" fill="#7E5AFF"/>
</svg>
