<svg width="11" height="16" viewBox="0 0 11 16" fill="none" xmlns="http://www.w3.org/2000/svg">
<path d="M7.71429 5.14286C7.71429 6.55915 6.55915 7.71429 5.14286 7.71429C3.72656 7.71429 2.57143 6.55915 2.57143 5.14286C2.57143 3.72656 3.72656 2.57143 5.14286 2.57143C6.55915 2.57143 7.71429 3.72656 7.71429 5.14286ZM10.2857 5.14286C10.2857 2.30022 7.98549 0 5.14286 0C2.30022 0 0 2.30022 0 5.14286C0 5.75558 0.0703125 6.38839 0.331473 6.94085L3.99777 14.7154C4.19866 15.1574 4.66071 15.4286 5.14286 15.4286C5.625 15.4286 6.08705 15.1574 6.29799 14.7154L9.95424 6.94085C10.2154 6.38839 10.2857 5.75558 10.2857 5.14286Z" fill="#7E5AFF"/>
</svg>
