<svg width="15" height="15" viewBox="0 0 15 15" fill="none" xmlns="http://www.w3.org/2000/svg">
<path d="M14.1429 11.1696C14.1429 11.0993 14.1429 11.029 14.1127 10.9587C14.0424 10.7478 13.5502 10.5268 13.3493 10.4263C12.7768 10.1049 12.1942 9.79352 11.6317 9.46205C11.3705 9.30134 11.0491 9 10.7377 9C10.125 9 9.23103 10.8181 8.68862 10.8181C8.41741 10.8181 8.06585 10.567 7.82478 10.4263C5.99665 9.41183 4.73103 8.14621 3.71652 6.31808C3.57589 6.07701 3.32478 5.72545 3.32478 5.45424C3.32478 4.91183 5.14286 4.01786 5.14286 3.40513C5.14286 3.09375 4.84152 2.77232 4.6808 2.51116C4.34933 1.94866 4.03795 1.36607 3.71652 0.793526C3.61607 0.592633 3.39509 0.100445 3.18415 0.0301323C3.11384 -1.78814e-06 3.04353 0 2.97321 0C2.61161 0 1.90848 0.160713 1.57701 0.311382C1.08482 0.52232 0.763393 1.08482 0.512277 1.53683C0.190848 2.12946 0 2.73214 0 3.40513C0 4.33928 0.381696 5.18304 0.69308 6.03683C0.914063 6.64955 1.18527 7.24219 1.52679 7.79464C2.58147 9.50223 4.64062 11.5614 6.34821 12.6161C6.90067 12.9576 7.4933 13.2288 8.10603 13.4498C8.95982 13.7612 9.80357 14.1429 10.7377 14.1429C11.4107 14.1429 12.0134 13.952 12.606 13.6306C13.058 13.3795 13.6205 13.058 13.8315 12.5658C13.9821 12.2344 14.1429 11.5313 14.1429 11.1696Z" fill="#7E5AFF"/>
</svg>
